Coordinates
version=1
nRows=29
nColumns=22
inDegrees=yes

Units are S.I. units (second, meters, Newtons, ...)
If the header above contains a line with 'inDegrees', this indicates whether rotational values are in degrees (yes) or radians (no).

endheader
time	pelvis_tilt	pelvis_list	pelvis_rotation	pelvis_tx	pelvis_ty	pelvis_tz	hip_flexion_r	hip_adduction_r	hip_rotation_r	knee_angle_r	ankle_angle_r	subtalar_angle_r	hip_flexion_l	hip_adduction_l	hip_rotation_l	knee_angle_l	ankle_angle_l	subtalar_angle_l	lumbar_extension	lumbar_bending	lumbar_rotation
      2.77000000	     -1.87057965	      5.05160189	    -42.52960715	     -0.03767246	      0.85697762	     -0.68509466	     10.16566706	     -0.82476505	     16.08182014	    -58.84627302	      6.10453819	     -5.33955853	     21.57717436	     -7.59221702	      9.33331788	    -24.71810625	     12.53370515	     18.38714987	     -3.19637122	     -1.62999929	      7.72904212
      2.78000000	     -1.51501138	      5.42475064	    -43.54946893	     -0.02980059	      0.85810161	     -0.68306060	     12.25267959	     -1.66298255	     14.08157191	    -62.22452367	      4.63071540	     -6.57227247	     20.72297907	     -6.94593483	      8.38729074	    -24.66153795	     12.87876763	     16.99748474	     -3.21489034	     -2.07742609	      7.40582868
      2.79000000	     -1.23413659	      5.70967686	    -44.63190577	     -0.02224529	      0.85934324	     -0.68081674	     14.27875993	     -2.35594562	     12.30889272	    -65.29953973	      3.67668643	     -7.66061957	     19.84399699	     -6.43046310	      7.43030344	    -24.51538106	     13.20275806	     15.68305552	     -3.22158729	     -2.38114245	      7.15307955
      2.80000000	     -1.05058706	      5.89275075	    -45.74942417	     -0.01506591	      0.86068781	     -0.67834827	     16.21682468	     -2.82067722	     10.74060373	    -68.03498861	      3.25665592	     -8.50467997	     18.96061009	     -6.07819925	      6.48858543	    -24.30512616	     13.53009474	     14.53536974	     -3.22179499	     -2.52572619	      6.96932539
      2.81000000	     -0.96860168	      5.96324199	    -46.87127823	     -0.00827486	      0.86218246	     -0.67563100	     18.02943291	     -3.00122645	      9.33410346	    -70.39508350	      3.24372138	     -9.12316666	     18.06188281	     -5.90662674	      5.54861183	    -24.02428306	     13.81177361	     13.57135670	     -3.23008070	     -2.50686731	      6.79976586
      2.82000000	     -0.99127964	      5.91823959	    -47.98234334	     -0.00188394	      0.86381723	     -0.67264199	     19.69912948	     -2.87245921	      8.03622768	    -72.36183578	      3.51652274	     -9.46578824	     17.13796300	     -5.92521743	      4.61686249	    -23.67606766	     14.07799196	     12.85794484	     -3.25581158	     -2.33396191	      6.68455127
      2.83000000	     -1.11466185	      5.76890815	    -49.04791308	      0.00414924	      0.86556170	     -0.66940194	     21.21693810	     -2.44042085	      6.79991562	    -73.93458739	      3.94537248	     -9.51561087	     16.19509862	     -6.11859734	      3.68750419	    -23.27165752	     14.31659767	     12.36350959	     -3.29941896	     -2.02124193	      6.56388605
      2.84000000	     -1.31353892	      5.53154131	    -50.04348424	      0.00988673	      0.86739904	     -0.66594719	     22.57740168	     -1.75966897	      5.57926143	    -75.12084371	      4.37877809	     -9.22427685	     15.22352440	     -6.44461707	      2.77514667	    -22.81524175	     14.50783416	     12.03527162	     -3.37196512	     -1.60428426	      6.41093952
      2.85000000	     -1.55555667	      5.22711805	    -50.96450021	      0.01538905	      0.86929004	     -0.66230520	     23.78561637	     -0.90133220	      4.36224854	    -75.94519674	      4.72086554	     -8.56445143	     14.20580632	     -6.85508052	      1.88791722	    -22.29845365	     14.66978700	     11.88917908	     -3.48028708	     -1.12566396	      6.22111394
      2.86000000	     -1.80983155	      4.88071927	    -51.80776922	      0.02071935	      0.87118289	     -0.65851471	     24.85613815	      0.05309812	      3.14065863	    -76.44108790	      4.96062910	     -7.58567501	     13.14410093	     -7.29825923	      1.02387991	    -21.73472610	     14.79596072	     11.85890951	     -3.62365006	     -0.62780163	      5.97755128
      2.87000000	     -2.05839735	      4.50424106	    -52.57910541	      0.02593701	      0.87304283	     -0.65462146	     25.80194088	      1.03985760	      1.91282088	    -76.63547725	      5.09752325	     -6.37703462	     12.03578310	     -7.74173970	      0.19387123	    -21.12808472	     14.90125758	     11.89413025	     -3.80415834	     -0.12646152	      5.67928051
      2.88000000	     -2.28769932	      4.12490519	    -53.28788845	      0.03107798	      0.87481326	     -0.65066337	     26.65585988	      1.99174006	      0.68372734	    -76.56737984	      5.17702448	     -5.01444443	     10.90407633	     -8.15193163	     -0.61241397	    -20.49834192	     14.97339009	     11.95751916	     -4.00626024	      0.35220917	      5.33098711
      2.89000000	     -2.49266629	      3.74891820	    -53.94043318	      0.03618517	      0.87646842	     -0.64667939	     27.43066350	      2.86578489	     -0.54606688	    -76.26463357	      5.24247056	     -3.61690079	      9.75371132	     -8.51427996	     -1.37907230	    -19.85050723	     15.04814331	     12.01818528	     -4.22741619	      0.80839276	      4.92755869
      2.90000000	     -2.67692905	      3.40346710	    -54.55496341	      0.04126229	      0.87795122	     -0.64270372	     28.16837372	      3.62603856	     -1.75785896	    -75.76250054	      5.32888148	     -2.21777627	      8.62462113	     -8.81611186	     -2.12920099	    -19.21341704	     15.10911139	     12.05879413	     -4.44238398	      1.23502267	      4.48054146
      2.91000000	     -2.84204930	      3.09648935	    -55.13600835	      0.04631608	      0.87923985	     -0.63875347	     28.88264475	      4.25155681	     -2.94749074	    -75.08486418	      5.47332469	     -0.90640759	      7.52548143	     -9.05252342	     -2.84575582	    -18.58521706	     15.18401734	     12.06848850	     -4.64488127	      1.63045818	      3.99823435
      2.92000000	     -2.99551718	      2.83938579	    -55.69770377	      0.05134546	      0.88030107	     -0.63483489	     29.59488283	      4.73495428	     -4.09907338	    -74.25487307	      5.67903748	      0.25349221	      6.47195492	     -9.22379009	     -3.52534069	    -17.97126656	     15.28363969	     12.04409280	     -4.81910990	      2.00053014	      3.49440194
      2.93000000	     -3.14252303	      2.64605477	    -56.24552548	      0.05631920	      0.88109885	     -0.63097303	     30.32970791	      5.07334015	     -5.19675758	    -73.29520184	      5.94290889	      1.24143659	      5.49644874	     -9.33239716	     -4.19202295	    -17.39678288	     15.39576749	     11.98965765	     -4.95528828	      2.34178849	      2.96823095
      2.94000000	     -3.28822997	      2.50076338	    -56.77812374	      0.06125086	      0.88165915	     -0.62714627	     31.06195280	      5.28482665	     -6.23964211	    -72.19231970	      6.22022159	      1.91483097	      4.59416419	     -9.39486319	     -4.83897478	    -16.87345762	     15.55812162	     11.91209879	     -5.06097955	      2.67062791	      2.42781697
      2.95000000	     -3.42226546	      2.42695314	    -57.31593054	      0.06609957	      0.88193474	     -0.62335303	     31.82329696	      5.36292935	     -7.18882701	    -70.98741952	      6.54667878	      2.41446939	      3.76517565	     -9.39022903	     -5.46268975	    -16.37906974	     15.72789371	     11.83194368	     -5.12274283	      2.96002731	      1.90832291
      2.96000000	     -3.54158716	      2.41797444	    -57.85832962	      0.07083951	      0.88194880	     -0.61956913	     32.59457717	      5.32592951	     -8.03745767	    -69.66202015	      6.86822225	      2.69219610	      3.00937045	     -9.32524795	     -6.07167349	    -15.92336748	     15.92499286	     11.75368745	     -5.14751397	      3.20469777	      1.41693807
      2.97000000	     -3.64279479	      2.44647649	    -58.40319802	      0.07547266	      0.88174843	     -0.61579277	     33.34271221	      5.20844434	     -8.76252287	    -68.20572365	      7.14360285	      2.78983768	      2.29850140	     -9.21521673	     -6.66953652	    -15.49938611	     16.15558162	     11.67245595	     -5.16383157	      3.42227701	      0.93252433
      2.98000000	     -3.72967275	      2.46810223	    -58.95712140	      0.07998442	      0.88141007	     -0.61197498	     34.00827897	      5.05980656	     -9.36390849	    -66.58517924	      7.37724739	      2.70306750	      1.59027378	     -9.09081834	     -7.25181420	    -15.11024436	     16.41568911	     11.56646649	     -5.20803166	      3.63799635	      0.47200846
      2.99000000	     -3.79699424	      2.48984061	    -59.51707247	      0.08436436	      0.88093194	     -0.60811231	     34.59327902	      4.88163130	     -9.84097756	    -64.80375969	      7.57704709	      2.39552028	      0.88563797	     -8.94456534	     -7.82030654	    -14.74513123	     16.69200664	     11.43705269	     -5.27576222	      3.83816789	      0.05048840
      3.00000000	     -3.83695327	      2.52179503	    -60.06956744	      0.08863968	      0.88031848	     -0.60421559	     35.10104188	      4.66343665	    -10.20348657	    -62.86248147	      7.74225112	      1.84381709	      0.17923201	     -8.75673370	     -8.33614684	    -14.37495139	     16.97679903	     11.28826367	     -5.35798286	      4.01078129	     -0.33586012
      3.01000000	     -3.86923475	      2.52041305	    -60.63484145	      0.09272709	      0.87963326	     -0.60026000	     35.48794346	      4.49174378	    -10.40498027	    -60.72699934	      7.86034604	      1.35587595	     -0.52090097	     -8.58743523	     -8.91234487	    -14.08178522	     17.27972427	     11.13985549	     -5.49271333	      4.19373845	     -0.69532195
      3.02000000	     -3.86084695	      2.52414584	    -61.16536584	      0.09676565	      0.87885391	     -0.59624653	     35.77771788	      4.25987271	    -10.54376142	    -58.43730110	      7.94670767	      0.55066351	     -1.25003281	     -8.36101080	     -9.38455967	    -13.74292874	     17.57268438	     10.96214678	     -5.64465032	      4.33627915	     -1.04423452
      3.03000000	     -3.84082631	      2.49891229	    -61.69436396	      0.10067415	      0.87801758	     -0.59214267	     35.95032547	      4.05181486	    -10.57737358	    -55.97578189	      7.95916745	     -0.15096291	     -1.99403039	     -8.14186139	     -9.90079469	    -13.43651036	     17.88330913	     10.78732298	     -5.83818948	      4.48238283	     -1.35779797
      3.04000000	     -3.79612280	      2.46930444	    -62.21206067	      0.10446148	      0.87711096	     -0.58797307	     36.02917828	      3.84628775	    -10.50361124	    -53.35907271	      7.89251310	     -0.79342846	     -2.72447798	     -7.90433687	    -10.44412377	    -13.17679286	     18.18939886	     10.61474139	     -6.05676456	      4.60524173	     -1.65596217
      3.05000000	     -3.72341788	      2.47084642	    -62.68187790	      0.10823912	      0.87609623	     -0.58370838	     36.04955021	      3.58699854	    -10.40386780	    -50.62066329	      7.80120938	     -1.66857180	     -3.45937300	     -7.61110398	    -10.87242678	    -12.85413643	     18.47576326	     10.43234836	     -6.24894818	      4.68629592	     -1.96226836
